<?xml version="1.0" encoding="UTF-8"?>
<svg id="Capa_2" data-name="Capa 2" xmlns="http://www.w3.org/2000/svg" viewBox="0 0 1326.89 1121.59">
  <defs>
    <style>
      .cls-1 {
        fill: #010101;
      }

      .cls-1, .cls-2 {
        stroke-width: 0px;
      }

      .cls-2 {
        fill: #bd1622;
      }
    </style>
  </defs>
  <g id="Recursos">
    <g id="Logo">
      <path class="cls-2" d="M439.3,553.82c-80.06-74.61-125.89-205.85-80.47-337.26,23.27-67.33,64.99-121.07,123.87-161.16C537.61,18.02,598.68-.45,664.98,0c78.26.54,147.71,26.33,207.51,76.92,41.85,35.4,72.39,79.06,92.22,130.26-1.55.64-2.79.4-4,.4-30.92.02-61.83-.02-92.75.07-2.58,0-3.86-.84-5.16-3.04-8.19-13.83-17.72-26.67-28.59-38.53-18.37-20.04-39.55-36.36-63.61-48.99-25.39-13.33-52.35-21.53-80.81-24.84-10.93-1.27-21.9-1.83-32.88-1.45-31.8,1.08-62.22,8.09-91.11,21.59-21.05,9.83-40.19,22.49-57.42,38.07-19.67,17.79-35.89,38.28-48.61,61.57-12.82,23.49-21.18,48.5-25.37,74.87-2.44,15.37-3.09,30.88-2.37,46.46.85,18.29,3.79,36.22,8.9,53.78,5.93,20.36,14.5,39.54,25.73,57.54,5.23,8.38,10.9,16.46,17.24,24.03,1.29,1.54,1.12,2.55.21,4.19-13.32,23.92-26.56,47.88-39.82,71.83-1.66,3-3.32,6.01-5.01,9.08Z"/>
      <path class="cls-2" d="M934.85,664.58c-1.78.72-3.02.48-4.24.48-32.89.02-65.78-.05-98.67.11-3.14.01-4.63-1.19-5.93-3.67-8.79-16.7-17.63-33.37-26.49-50.04-9.84-18.51-19.74-37-29.58-55.51-7.87-14.81-15.65-29.67-23.53-44.48-8.75-16.44-17.58-32.84-26.33-49.28-6.84-12.85-13.57-25.75-20.41-38.6-7.76-14.59-15.59-29.15-23.36-43.73-3.6-6.75-7.11-13.54-10.7-20.3-.56-1.06-.84-2.33-1.93-3.05-1.01-.07-1.23.78-1.55,1.38-7.86,14.82-15.66,29.67-23.53,44.48-9.67,18.18-19.43,36.32-29.1,54.5-6.9,12.96-13.69,25.97-20.58,38.93-7.7,14.48-15.49,28.92-23.19,43.4-6.89,12.96-13.69,25.97-20.58,38.93-7.7,14.48-15.49,28.92-23.19,43.4-6.83,12.85-13.63,25.73-20.39,38.61-2.56,4.87-2.5,4.9-8.07,4.9-32.27,0-64.55,0-96.82,0-1.34,0-2.68,0-3.95,0-.62-1.37.21-2.14.65-2.93,15.15-27.41,30.31-54.81,45.49-82.2,15.66-28.25,31.36-56.48,47-84.74,15.17-27.4,30.28-54.84,45.43-82.25,9.61-17.38,19.25-34.73,28.87-52.1,12.18-22.01,24.33-44.03,36.51-66.04,12.24-22.12,24.5-44.22,36.75-66.33,9.44-17.04,18.88-34.09,28.3-51.14.47-.84.82-1.75,2.03-2.62,90.4,163.34,180.69,326.49,271.11,489.87Z"/>
      <path class="cls-1" d="M313.66,900.65h-3.52c-20.53,0-41.06-.04-61.58.05-2.45.01-4.01-.67-5.54-2.68-16.11-21.15-37.46-33.83-63.47-38.81-5.57-1.07-11.28-1.56-16.9-1.49-14.54.19-28.63,2.94-41.93,9.08-11.42,5.27-21.64,12.26-30.46,21.25-13.92,14.19-22.9,31.02-27.15,50.42-1.99,9.1-2.65,18.35-1.95,27.56,1.76,23.07,10.21,43.43,25.72,60.77,11.5,12.86,25.37,22.17,41.57,27.98,8.14,2.92,16.54,4.68,25.2,5.45,16.56,1.47,32.43-1.1,47.74-7.43,11.16-4.61,21.15-11.07,29.93-19.39,1.25-1.19,2.67-2.22,3.8-3.51,3.31-3.79,6.87-7.38,9.71-11.89-1.13-.77-2.38-.41-3.5-.41-14.96-.03-29.93-.06-44.89.03-2.47.01-3.9-.52-5.12-2.99-8.57-17.37-17.37-34.64-26.07-51.95-.54-1.07-1.4-2.05-1.31-3.42,1.31-.62,2.68-.3,4.01-.3,30.17-.02,60.35.32,90.52-.13,20.64-.31,41.27-.12,61.91-.33.74,0,1.49.06,2.22-.01,1.45-.15,1.89.45,1.92,1.88.18,6.92-.19,13.81-1.15,20.64-1.3,9.26-3.38,18.36-6.17,27.3-4.81,15.42-11.84,29.75-21.01,43.01-12.13,17.54-27.11,32.22-45,43.87-21,13.67-43.92,22.02-68.82,25.13-9.48,1.18-18.97,1.49-28.44,1.03-20.23-.98-39.67-5.66-58.18-13.98-15.3-6.88-29.21-15.93-41.68-27.12-13.5-12.12-24.72-26.13-33.59-42-8.07-14.42-13.74-29.74-17.09-45.9-1.35-6.49-2.18-13.08-2.77-19.72-.69-7.77-.81-15.53-.33-23.27.79-12.92,3.04-25.62,6.88-38.01,6.93-22.36,18.1-42.36,33.63-59.84,18.89-21.26,41.84-36.57,68.76-45.89,12.05-4.17,24.43-6.9,37.09-8.07,28.01-2.58,55.04,1.56,80.86,12.85,17.34,7.58,32.82,17.94,46.58,30.98,14.2,13.47,25.55,28.98,34.22,46.48,1.75,3.53,3.21,7.19,4.78,10.8.24.55.35,1.15.59,1.94Z"/>
      <path class="cls-1" d="M755.64,1003.39c25.11,36.72,50.15,73.33,75.13,109.86-.9,1.15-1.83.79-2.64.79-24.73.02-49.46-.02-74.19.07-2.15,0-3.33-.74-4.46-2.43-13.26-19.93-26.58-39.82-39.89-59.72-7.75-11.59-15.54-23.15-23.24-34.77-1.05-1.59-2.11-2.33-4.14-2.32-15.83.1-31.66.05-47.48.06-2.99,0-3.02.03-3.03,3-.01,19.91,0,39.82,0,59.72,0,1.18,0,2.36,0,4.09-1.3-1.17-1.53-2.23-1.94-3.19-12.29-28.9-24.57-57.8-36.87-86.7-9.46-22.21-18.92-44.41-28.44-66.59-.9-2.09-1.29-4.16-1.29-6.43.04-36.73.03-73.45.03-110.18q0-4.01,4.21-4.01c49.83,0,99.67-.15,149.5.08,17.31.08,33.94,4,49.78,11.13,10.34,4.65,19.62,10.88,27.7,18.77,13.17,12.87,21.18,28.56,24.9,46.55,2.52,12.18,2.97,24.48,2.06,36.8-1.21,16.56-5.34,32.35-14.82,46.26-8.96,13.16-20.57,23.52-34.42,31.4-5.24,2.98-10.78,5.29-16.44,7.76ZM631.68,909.87c0,13.71,0,27.43,0,41.14,0,3.33-.58,3.55,3.33,3.5,23.83-.26,47.66.54,71.49-.44,7.96-.33,15.67-1.9,22.85-5.4,10.21-4.98,17.38-12.77,20.89-23.7,2.53-7.89,2.66-15.93,1.41-24.04-2-12.97-8.82-22.48-20.52-28.48-9.31-4.77-19.4-6.47-29.66-6.59-22.24-.26-44.48-.08-66.72-.08-3.5,0-3.08,0-3.08,3.33,0,13.59,0,27.18,0,40.77Z"/>
      <path class="cls-1" d="M623.78,1114.05c-5.42,0-10.85,0-16.28,0-17.06,0-34.12,0-51.19,0q-3.57,0-4.97-3.43c-8.6-21.09-17.24-42.16-25.76-63.28-.81-2-1.68-2.8-3.94-2.8-41.67.07-83.33.07-125,0-2.16,0-3.14.62-3.96,2.67-8.5,21.13-17.13,42.21-25.72,63.3q-1.44,3.53-5.27,3.54c-20.52,0-41.05,0-61.57,0-.74,0-1.49.03-2.23,0-2.01-.11-2.1-.23-1.34-2.24.57-1.49,1.23-2.95,1.85-4.42,13.28-31.15,26.58-62.29,39.83-93.45,15.27-35.92,30.46-71.87,45.74-107.78,11.61-27.3,23.31-54.56,34.96-81.85,2.42-5.67,4.93-11.3,7.15-17.05.82-2.14,1.95-2.68,4.1-2.67,15.33.08,30.66.05,45.99.05,4.57,0,9.16.16,13.72-.07,2.28-.11,3.31.81,4.1,2.73,3.35,8.08,6.78,16.12,10.2,24.17,9.87,23.23,19.75,46.45,29.64,69.67,12.16,28.54,24.35,57.06,36.49,85.6,13.02,30.59,26,61.2,38.99,91.8,4.76,11.22,9.52,22.45,14.28,33.67.19.44.54.83.18,1.84ZM499.93,984.06c-13.67-33.36-27.11-66.16-40.81-99.6-13.75,33.66-27.31,66.48-40.75,99.6h81.57Z"/>
      <path class="cls-1" d="M1097.38,1114.05c-13.82,0-27.41,0-41.01,0-9.02,0-18.05-.07-27.07.05-2.28.03-3.51-.57-4.4-2.8-5.89-14.75-11.92-29.45-17.89-44.16-2.78-6.85-5.54-13.7-8.27-20.56-.56-1.42-1.33-2.29-3.01-2-.6.1-1.23.02-1.85.02-40.92,0-81.84,0-122.76,0q-3.91,0-5.42,3.71c-6.78,16.65-13.57,33.29-20.34,49.95-.28.69-.4,1.43-1.3,1.93-1.34-1.86-2.73-3.72-4.04-5.63-12.25-17.92-24.45-35.87-36.75-53.75-1.38-2-1.68-3.61-.67-5.97,12.61-29.43,25.06-58.91,37.6-88.37,9.45-22.2,18.98-44.37,28.43-66.57,10.32-24.24,20.61-48.49,30.84-72.77.8-1.9,1.8-2.54,3.84-2.54,20.03.07,40.06.1,60.08-.03,2.35-.02,3.27.97,4.05,2.82,3.51,8.41,7.04,16.81,10.61,25.2,13.92,32.74,27.86,65.48,41.8,98.22,15.24,35.79,30.48,71.58,45.72,107.37,10.27,24.13,20.54,48.25,30.79,72.39.42.98,1.06,1.93,1.03,3.5ZM973.34,984.08c-13.67-33.36-27.12-66.19-40.82-99.62-13.76,33.58-27.22,66.45-40.81,99.62h81.63Z"/>
      <path class="cls-1" d="M1326.89,804.86c-2.22,3.55-4.27,6.87-6.36,10.17-17.04,27-34.08,54.01-51.14,81-14.69,23.24-29.43,46.45-44.13,69.68-4.48,7.08-8.87,14.23-13.44,21.26-1.16,1.79-1.38,3.58-1.38,5.59.02,38.7.02,77.4.02,116.09q0,5.41-5.49,5.41c-19.41,0-38.82,0-58.23,0-.87,0-1.73-.04-2.6,0-1.39.08-2.08-.47-1.96-1.93.07-.86.01-1.73.01-2.6,0-38.45-.02-76.9.05-115.35,0-2.47-.6-4.49-1.89-6.55-22.44-35.69-44.81-71.43-67.22-107.14-15.53-24.75-31.09-49.48-46.63-74.22-.19-.3-.29-.65-.43-.98.59-1.04,1.55-.64,2.32-.64,24.73-.02,49.46,0,74.18-.06,2.09,0,3.33.58,4.41,2.44,10.43,17.89,20.96,35.72,31.45,53.57,11.05,18.81,22.09,37.62,33.14,56.42,1.62,2.76,3.24,5.51,5.02,8.54,2.43-2.98,4.01-6.19,5.83-9.23,17.17-28.65,34.31-57.32,51.46-85.99,4.68-7.82,9.42-15.6,14.01-23.47.92-1.57,1.87-2.28,3.73-2.28,24.48.05,48.96.04,73.44.04.47,0,.93.11,1.82.22Z"/>
      <path class="cls-2" d="M883.05,396.07c-1.86,0-3.21,0-4.57,0-24.97,0-49.94-.03-74.91.04-2.33,0-3.64-.52-4.87-2.76-16.2-29.5-32.56-58.9-48.86-88.35-.52-.94-1.29-1.84-1.15-3.09,1.11-.8,2.38-.4,3.56-.4,76.27-.02,152.55-.02,228.82-.02.74,0,1.49.05,2.22,0,1.63-.11,2.07.7,2.11,2.23.18,6.77.83,13.56.64,20.32-.44,16.35-1.48,32.66-4.05,48.86-4.06,25.53-10.99,50.21-20.97,74.03-13.11,31.29-30.7,59.82-52.88,85.51-5.65,6.54-11.48,12.9-17.59,19.01-.77.77-1.4,1.74-2.67,2.21-1.8-1.66-2.62-4.03-3.79-6.13-10.73-19.28-21.38-38.62-32.05-57.94-3.1-5.61-6.08-11.29-9.34-16.8-1.03-1.74-.79-2.73.41-4.17,8.69-10.47,16.21-21.74,22.85-33.6,6.28-11.2,11.46-22.92,15.8-35.01.41-1.15.75-2.33,1.28-3.96Z"/>
      <path class="cls-2" d="M537.45,618.85c2.55-4.85,5.1-9.77,7.7-14.66,5.68-10.67,11.39-21.32,17.07-31.99,5.56-10.45,11.08-20.93,16.64-31.38,1.15-2.17,1.19-2.15,4.11-1.08,12.18,4.45,24.61,7.99,37.37,10.37,10.07,1.88,20.2,3.08,30.44,3.66,28.01,1.59,55.36-1.89,82.1-10.3,3.88-1.22,7.69-2.64,11.53-3.96,2.41-.83,2.52-.81,3.72,1.45,8.73,16.45,17.44,32.91,26.18,49.36,4.63,8.71,9.3,17.4,13.96,26.09,1.55,2.89,1.58,2.9-1.48,4.15-25.2,10.31-51.22,17.58-78.24,21.21-11.5,1.54-23.01,2.6-34.61,2.96-5.43.17-10.86.43-16.29.28-33.1-.89-65.47-6.09-96.9-16.75-7.23-2.45-14.41-5.04-21.43-8.05-.57-.24-1.16-.41-1.89-1.35Z"/>
    </g>
  </g>
</svg>