<?xml version="1.0" encoding="UTF-8"?>
<svg id="Capa_2" data-name="Capa 2" xmlns="http://www.w3.org/2000/svg" viewBox="0 0 2069.58 1749.37">
  <defs>
    <style>
      .cls-1 {
        fill: #bd1622;
      }

      .cls-1, .cls-2 {
        stroke-width: 0px;
      }

      .cls-2 {
        fill: #fff;
      }
    </style>
  </defs>
  <g id="Recursos">
    <g id="Logo">
      <path class="cls-1" d="M685.18,863.8c-124.88-116.37-196.35-321.07-125.5-526.03,36.3-105.02,101.37-188.84,193.2-251.36C838.52,28.1,933.77-.7,1037.18.01c122.07.84,230.38,41.07,323.66,119.97,65.28,55.22,112.91,123.31,143.84,203.17-2.41,1-4.35.63-6.24.63-48.22.02-96.44-.03-144.66.11-4.02.01-6.02-1.31-8.05-4.74-12.77-21.57-27.63-41.6-44.6-60.1-28.65-31.25-61.69-56.71-99.21-76.41-39.6-20.8-81.64-33.59-126.04-38.74-17.04-1.98-34.16-2.85-51.29-2.27-49.6,1.69-97.04,12.62-142.11,33.67-32.84,15.34-62.68,35.08-89.55,59.38-30.68,27.75-55.98,59.71-75.81,96.04-20,36.63-33.04,75.65-39.56,116.77-3.8,23.97-4.82,48.17-3.69,72.46,1.32,28.53,5.91,56.49,13.88,83.88,9.24,31.75,22.61,61.68,40.14,89.75,8.16,13.08,17,25.67,26.89,37.48,2.02,2.41,1.75,3.98.33,6.53-20.78,37.3-41.43,74.68-62.11,112.04-2.59,4.69-5.18,9.38-7.82,14.17Z"/>
      <path class="cls-1" d="M1458.12,1036.56c-2.77,1.13-4.71.75-6.61.75-51.3.02-102.6-.07-153.9.17-4.9.02-7.21-1.86-9.25-5.72-13.71-26.05-27.5-52.05-41.32-78.04-15.35-28.87-30.79-57.7-46.14-86.58-12.28-23.1-24.42-46.28-36.7-69.38-13.64-25.64-27.42-51.22-41.06-76.86-10.66-20.04-21.17-40.16-31.83-60.2-12.1-22.76-24.31-45.46-36.43-68.21-5.61-10.53-11.09-21.12-16.68-31.66-.88-1.66-1.31-3.64-3.02-4.75-1.58-.1-1.92,1.22-2.41,2.15-12.26,23.11-24.42,46.28-36.71,69.38-15.08,28.36-30.3,56.65-45.39,85.01-10.75,20.21-21.35,40.51-32.1,60.72-12.01,22.59-24.15,45.11-36.16,67.7-10.75,20.22-21.35,40.51-32.1,60.72-12.01,22.59-24.16,45.11-36.17,67.7-10.66,20.04-21.25,40.12-31.8,60.23-3.99,7.6-3.9,7.65-12.59,7.65-50.34,0-100.67,0-151.01,0-2.09,0-4.19,0-6.17,0-.96-2.14.33-3.33,1.02-4.58,23.62-42.75,47.27-85.49,70.94-128.21,24.42-44.07,48.91-88.1,73.31-132.18,23.66-42.74,47.22-85.53,70.85-128.28,14.98-27.1,30.03-54.17,45.02-81.26,18.99-34.33,37.94-68.68,56.94-103.01,19.09-34.49,38.21-68.97,57.31-103.46,14.72-26.59,29.44-53.17,44.14-79.77.73-1.32,1.27-2.73,3.16-4.09,141,254.77,281.83,509.24,422.85,764.06Z"/>
      <path class="cls-2" d="M489.23,1404.77h-5.49c-32.02,0-64.04-.06-96.06.08-3.82.02-6.25-1.05-8.64-4.18-25.12-32.99-58.42-52.76-99-60.53-8.69-1.66-17.59-2.44-26.36-2.33-22.68.29-44.65,4.58-65.4,14.16-17.82,8.22-33.75,19.12-47.52,33.15-21.71,22.13-35.71,48.38-42.34,78.65-3.11,14.2-4.14,28.61-3.04,42.98,2.75,35.98,15.92,67.74,40.11,94.78,17.94,20.05,39.56,34.58,64.84,43.65,12.7,4.56,25.8,7.3,39.3,8.51,25.83,2.3,50.58-1.72,74.46-11.58,17.41-7.2,33-17.27,46.68-30.24,1.95-1.85,4.17-3.46,5.93-5.48,5.16-5.91,10.71-11.51,15.15-18.55-1.77-1.19-3.7-.64-5.46-.64-23.34-.04-46.68-.1-70.02.04-3.85.02-6.08-.81-7.98-4.67-13.36-27.1-27.09-54.02-40.65-81.02-.84-1.68-2.19-3.2-2.05-5.33,2.04-.97,4.18-.47,6.25-.47,47.06-.03,94.13.5,141.19-.21,32.19-.48,64.37-.18,96.56-.51,1.16-.01,2.32.1,3.47-.02,2.25-.23,2.94.7,3,2.94.28,10.79-.3,21.54-1.79,32.2-2.02,14.44-5.27,28.63-9.63,42.59-7.51,24.05-18.47,46.4-32.77,67.08-18.93,27.35-42.28,50.26-70.19,68.43-32.75,21.33-68.51,34.35-107.35,39.2-14.78,1.84-29.59,2.32-44.36,1.6-31.56-1.53-61.87-8.83-90.74-21.81-23.86-10.73-45.56-24.85-65.01-42.29-21.06-18.9-38.55-40.76-52.39-65.5-12.58-22.49-21.43-46.39-26.65-71.58-2.1-10.13-3.39-20.4-4.31-30.75-1.08-12.12-1.26-24.22-.52-36.3,1.24-20.15,4.74-39.96,10.73-59.29,10.8-34.87,28.23-66.07,52.45-93.33,29.47-33.17,65.26-57.04,107.25-71.58,18.79-6.51,38.11-10.77,57.84-12.59,43.68-4.02,85.84,2.44,126.12,20.05,27.04,11.82,51.2,27.98,72.65,48.33,22.15,21.01,39.85,45.2,53.37,72.49,2.72,5.5,5.01,11.22,7.46,16.85.37.85.55,1.79.91,3.03Z"/>
      <path class="cls-2" d="M1178.59,1565.01c39.16,57.27,78.22,114.37,117.18,171.34-1.4,1.8-2.86,1.23-4.12,1.23-38.57.03-77.15-.02-115.72.12-3.35.01-5.2-1.15-6.96-3.8-20.69-31.08-41.46-62.11-62.22-93.14-12.09-18.07-24.24-36.11-36.25-54.24-1.65-2.48-3.28-3.64-6.45-3.62-24.69.16-49.37.08-74.06.1-4.67,0-4.72.05-4.72,4.68-.02,31.05,0,62.1,0,93.15,0,1.84,0,3.69,0,6.37-2.02-1.83-2.39-3.48-3.03-4.98-19.17-45.08-38.32-90.16-57.51-135.22-14.75-34.64-29.52-69.27-44.35-103.87-1.4-3.26-2.02-6.49-2.02-10.03.06-57.28.04-114.56.04-171.84q0-6.25,6.56-6.26c77.73,0,155.46-.23,233.18.13,26.99.12,52.94,6.24,77.64,17.36,16.12,7.26,30.6,16.96,43.21,29.28,20.55,20.07,33.03,44.55,38.83,72.6,3.93,18.99,4.63,38.19,3.22,57.4-1.89,25.83-8.33,50.46-23.12,72.16-13.98,20.52-32.09,36.69-53.69,48.97-8.17,4.65-16.81,8.24-25.65,12.1ZM985.25,1419.15c0,21.39,0,42.78,0,64.17,0,5.19-.9,5.53,5.2,5.46,37.17-.4,74.34.84,111.5-.69,12.42-.51,24.45-2.96,35.64-8.42,15.92-7.76,27.11-19.92,32.58-36.97,3.94-12.3,4.15-24.85,2.2-37.5-3.12-20.23-13.76-35.07-32-44.41-14.52-7.44-30.26-10.1-46.26-10.28-34.68-.41-69.37-.12-104.06-.13-5.46,0-4.8,0-4.8,5.19,0,21.2,0,42.39,0,63.59Z"/>
      <path class="cls-2" d="M972.92,1737.61c-8.45,0-16.92,0-25.4,0-26.61,0-53.23,0-79.84,0q-5.58,0-7.75-5.35c-13.42-32.89-26.89-65.76-40.17-98.7-1.26-3.12-2.62-4.37-6.14-4.36-64.99.12-129.98.11-194.97,0-3.37,0-4.9.97-6.18,4.16-13.26,32.95-26.72,65.83-40.12,98.73q-2.24,5.51-8.22,5.51c-32.01,0-64.02,0-96.04,0-1.16,0-2.32.05-3.47-.01-3.14-.17-3.28-.37-2.09-3.5.89-2.33,1.91-4.6,2.89-6.9,20.71-48.58,41.46-97.15,62.13-145.75,23.82-56.02,47.51-112.09,71.34-168.11,18.11-42.58,36.35-85.11,54.53-127.66,3.77-8.84,7.7-17.62,11.15-26.59,1.28-3.33,3.04-4.18,6.39-4.16,23.91.13,47.83.07,71.74.07,7.14,0,14.28.24,21.4-.1,3.56-.17,5.16,1.27,6.4,4.26,5.23,12.6,10.57,25.15,15.91,37.7,15.4,36.23,30.81,72.46,46.24,108.67,18.96,44.51,37.98,89,56.92,133.52,20.3,47.72,40.55,95.46,60.81,143.19,7.43,17.5,14.84,35.01,22.27,52.51.29.69.84,1.3.27,2.86ZM779.75,1534.86c-21.32-52.03-42.29-103.2-63.66-155.34-21.44,52.5-42.59,103.69-63.56,155.34h127.22Z"/>
      <path class="cls-2" d="M1711.61,1737.61c-21.55,0-42.76,0-63.96,0-14.08,0-28.15-.12-42.23.08-3.56.05-5.48-.9-6.86-4.36-9.18-23.01-18.59-45.93-27.91-68.88-4.33-10.68-8.64-21.36-12.9-32.07-.88-2.21-2.08-3.57-4.69-3.12-.94.16-1.92.03-2.89.03-63.83,0-127.65,0-191.48,0q-6.1,0-8.45,5.79c-10.58,25.97-21.17,51.93-31.72,77.91-.44,1.07-.63,2.23-2.02,3.02-2.08-2.9-4.26-5.8-6.3-8.79-19.1-27.95-38.13-55.94-57.32-83.84-2.15-3.13-2.62-5.63-1.05-9.31,19.66-45.9,39.09-91.89,58.64-137.83,14.74-34.63,29.6-69.2,44.35-103.83,16.1-37.81,32.15-75.63,48.1-113.5,1.25-2.96,2.81-3.97,5.99-3.96,31.24.11,62.48.15,93.71-.05,3.67-.02,5.11,1.52,6.31,4.4,5.47,13.12,10.98,26.22,16.54,39.3,21.72,51.07,43.46,102.13,65.19,153.19,23.77,55.83,47.54,111.65,71.31,167.47,16.02,37.63,32.04,75.26,48.02,112.91.65,1.53,1.65,3.01,1.6,5.45ZM1518.14,1534.89c-21.32-52.03-42.3-103.23-63.66-155.37-21.46,52.38-42.46,103.64-63.65,155.37h127.31Z"/>
      <path class="cls-2" d="M2069.58,1255.36c-3.46,5.53-6.66,10.71-9.91,15.86-26.58,42.12-53.15,84.24-79.77,126.33-22.92,36.25-45.9,72.45-68.83,108.69-6.99,11.05-13.84,22.19-20.96,33.16-1.81,2.79-2.15,5.59-2.15,8.72.04,60.36.03,120.72.03,181.08q0,8.43-8.56,8.43c-30.28,0-60.55,0-90.83,0-1.35,0-2.7-.06-4.05.01-2.17.12-3.24-.73-3.06-3.01.11-1.34.02-2.7.02-4.05,0-59.97-.03-119.95.08-179.92,0-3.85-.93-7-2.95-10.21-34.99-55.67-69.89-111.41-104.84-167.11-24.22-38.6-48.49-77.17-72.72-115.76-.29-.46-.45-1.01-.67-1.53.92-1.63,2.42-1,3.62-1,38.57-.03,77.14,0,115.71-.09,3.25,0,5.19.91,6.88,3.81,16.26,27.9,32.68,55.71,49.05,83.55,17.24,29.33,34.46,58.67,51.69,88.01,2.53,4.3,5.05,8.6,7.83,13.32,3.79-4.65,6.26-9.65,9.1-14.39,26.78-44.69,53.51-89.41,80.26-134.12,7.3-12.2,14.69-24.34,21.85-36.61,1.43-2.45,2.91-3.56,5.81-3.56,38.18.08,76.37.06,114.55.07.73,0,1.45.17,2.83.34Z"/>
      <path class="cls-1" d="M1377.32,617.75c-2.9,0-5.01,0-7.12,0-38.95,0-77.9-.04-116.85.07-3.63.01-5.67-.81-7.6-4.31-25.27-46-50.79-91.87-76.2-137.8-.81-1.46-2.01-2.87-1.79-4.82,1.73-1.24,3.71-.63,5.55-.63,118.97-.03,237.93-.03,356.9-.03,1.16,0,2.32.07,3.47,0,2.55-.17,3.22,1.09,3.29,3.48.28,10.57,1.29,21.14,1,31.69-.69,25.51-2.3,50.93-6.32,76.21-6.33,39.82-17.13,78.31-32.71,115.47-20.45,48.81-47.89,93.3-82.47,133.38-8.81,10.21-17.9,20.13-27.43,29.66-1.21,1.21-2.19,2.71-4.17,3.45-2.81-2.6-4.09-6.29-5.91-9.56-16.74-30.08-33.34-60.23-49.98-90.37-4.83-8.75-9.48-17.6-14.57-26.2-1.6-2.72-1.23-4.25.63-6.5,13.55-16.32,25.28-33.91,35.64-52.4,9.79-17.48,17.87-35.75,24.64-54.61.64-1.79,1.18-3.63,2-6.18Z"/>
      <path class="cls-1" d="M838.27,965.24c3.97-7.56,7.95-15.23,12.01-22.86,8.86-16.64,17.77-33.25,26.63-49.9,8.67-16.3,17.29-32.64,25.95-48.95,1.8-3.38,1.85-3.36,6.42-1.69,19,6.94,38.39,12.46,58.28,16.17,15.7,2.93,31.51,4.8,47.48,5.71,43.69,2.49,86.35-2.94,128.06-16.06,6.04-1.9,11.99-4.12,17.98-6.18,3.76-1.3,3.93-1.26,5.8,2.26,13.62,25.66,27.21,51.33,40.84,76.99,7.22,13.59,14.5,27.14,21.78,40.7,2.42,4.5,2.47,4.52-2.31,6.47-39.31,16.07-79.88,27.43-122.03,33.08-17.93,2.4-35.89,4.06-53.98,4.62-8.47.26-16.94.67-25.4.44-51.63-1.39-102.12-9.5-151.13-26.12-11.28-3.82-22.47-7.86-33.42-12.55-.89-.38-1.81-.64-2.94-2.11Z"/>
    </g>
  </g>
</svg>