<?xml version="1.0" encoding="UTF-8"?>
<svg xmlns="http://www.w3.org/2000/svg" viewBox="0 0 1165.48 1201.53">
  <defs>
    <style>
      .cls-1 {
        isolation: isolate;
      }

      .cls-2 {
        mix-blend-mode: multiply;
        opacity: .5;
      }

      .cls-3 {
        fill: #bd1622;
        stroke-width: 0px;
      }
    </style>
  </defs>
  <g class="cls-1">
    <g id="Capa_2" data-name="Capa 2">
      <g id="Logos">
        <g id="Logo" class="cls-2">
          <path class="cls-3" d="M177.79,1000.39C33.17,865.62-49.61,628.55,32.44,391.18c42.04-121.62,117.4-218.7,223.75-291.1C355.38,32.55,465.69-.81,585.45.01c141.37.97,266.81,47.57,374.84,138.94,75.6,63.95,130.77,142.81,166.58,235.29-2.8,1.15-5.04.73-7.22.73-55.85.03-111.69-.04-167.54.13-4.65.01-6.97-1.52-9.32-5.49-14.79-24.98-32-48.18-51.65-69.61-33.18-36.19-71.44-65.67-114.9-88.5-45.87-24.09-94.55-38.9-145.97-44.87-19.74-2.29-39.56-3.3-59.4-2.63-57.45,1.96-112.39,14.62-164.58,39-38.03,17.76-72.59,40.63-103.71,68.77-35.53,32.14-64.84,69.15-87.8,111.22-23.16,42.43-38.26,87.61-45.82,135.24-4.4,27.76-5.58,55.79-4.28,83.92,1.53,33.04,6.84,65.42,16.08,97.14,10.7,36.77,26.18,71.43,46.48,103.94,9.46,15.14,19.68,29.73,31.15,43.41,2.34,2.79,2.03,4.61.39,7.56-24.07,43.2-47.98,86.49-71.93,129.76-3,5.43-6,10.86-9.05,16.41Z"/>
          <path class="cls-3" d="M583.23,315.59c163.29,295.06,326.39,589.77,489.72,884.88-3.21,1.3-5.46.86-7.66.86-59.41.03-118.83-.08-178.24.19-5.67.03-8.36-2.15-10.71-6.63-15.88-30.17-31.85-60.28-47.85-90.38-17.78-33.44-35.66-66.83-53.43-100.27-14.22-26.76-28.28-53.6-42.51-80.35-15.8-29.7-31.75-59.31-47.55-89.01-12.35-23.21-24.52-46.51-36.86-69.72-14.02-26.36-28.16-52.65-42.2-79-6.49-12.19-12.84-24.46-19.32-36.66-1.02-1.92-1.52-4.21-3.49-5.5-1.82-.12-2.22,1.41-2.8,2.49-14.19,26.77-28.28,53.6-42.51,80.35-17.47,32.85-35.09,65.61-52.57,98.45-12.46,23.41-24.73,46.91-37.18,70.32-13.91,26.16-27.97,52.24-41.88,78.4-12.45,23.41-24.72,46.91-37.17,70.33-13.91,26.16-27.97,52.24-41.89,78.4-12.34,23.21-24.61,46.47-36.83,69.75-4.62,8.8-4.51,8.86-14.58,8.86-58.3,0-116.59,0-174.89,0-2.42,0-4.85,0-7.14,0-1.11-2.48.38-3.86,1.18-5.3,27.36-49.51,54.74-99,82.16-148.48,28.28-51.04,56.65-102.03,84.9-153.08,27.4-49.5,54.69-99.05,82.06-148.57,17.35-31.39,34.78-62.73,52.14-94.11,22-39.76,43.94-79.54,65.94-119.29,22.11-39.95,44.25-79.88,66.37-119.82,17.05-30.79,34.1-61.58,51.13-92.39"/>
          <path class="cls-3" d="M979.37,715.44c-3.36,0-5.8,0-8.25,0-45.11,0-90.21-.05-135.32.08-4.2.01-6.57-.93-8.8-4.99-29.27-53.28-58.82-106.4-88.25-159.59-.94-1.7-2.33-3.33-2.07-5.58,2-1.44,4.3-.72,6.43-.73,137.78-.04,275.56-.04,413.33-.04,1.34,0,2.68.08,4.02,0,2.95-.2,3.73,1.26,3.81,4.03.33,12.24,1.49,24.49,1.16,36.7-.79,29.54-2.67,58.99-7.32,88.26-7.33,46.12-19.84,90.69-37.88,133.73-23.69,56.52-55.46,108.05-95.51,154.47-10.2,11.82-20.74,23.31-31.77,34.35-1.4,1.4-2.54,3.14-4.83,3.99-3.26-3.01-4.74-7.29-6.84-11.07-19.38-34.83-38.62-69.76-57.89-104.65-5.6-10.13-10.98-20.39-16.87-30.35-1.86-3.15-1.42-4.93.73-7.52,15.69-18.9,29.28-39.27,41.27-60.69,11.34-20.24,20.7-41.41,28.53-63.24.75-2.08,1.36-4.2,2.31-7.16Z"/>
          <path class="cls-3" d="M355.08,1117.87c4.6-8.76,9.21-17.64,13.91-26.48,10.26-19.27,20.58-38.51,30.84-57.79,10.04-18.88,20.02-37.8,30.05-56.69,2.08-3.92,2.14-3.89,7.43-1.96,22,8.04,44.46,14.43,67.5,18.72,18.19,3.39,36.5,5.56,54.99,6.61,50.6,2.88,100-3.41,148.31-18.6,7-2.2,13.89-4.77,20.83-7.16,4.36-1.5,4.56-1.46,6.72,2.62,15.77,29.72,31.51,59.45,47.3,89.16,8.36,15.73,16.79,31.43,25.22,47.13,2.8,5.22,2.86,5.23-2.67,7.49-45.52,18.61-92.51,31.76-141.33,38.31-20.77,2.79-41.56,4.7-62.52,5.35-9.81.31-19.62.78-29.42.51-59.8-1.61-118.27-11-175.03-30.26-13.06-4.43-26.03-9.1-38.71-14.54-1.03-.44-2.1-.74-3.41-2.44Z"/>
        </g>
      </g>
    </g>
  </g>
</svg>