<?xml version="1.0" encoding="UTF-8"?>
<svg xmlns="http://www.w3.org/2000/svg" viewBox="0 0 1731.71 1248.89">
  <defs>
    <style>
      .cls-1 {
        stroke-dasharray: 0 0 21.77 14.84;
      }

      .cls-1, .cls-2, .cls-3, .cls-4, .cls-5, .cls-6, .cls-7, .cls-8, .cls-9, .cls-10, .cls-11, .cls-12 {
        fill: none;
        stroke: #fff;
        stroke-linecap: square;
        stroke-linejoin: bevel;
      }

      .cls-2 {
        stroke-dasharray: 0 0 21.34 14.55;
      }

      .cls-4 {
        stroke-dasharray: 0 0 22.11 15.07;
      }

      .cls-13 {
        isolation: isolate;
      }

      .cls-14, .cls-11 {
        mix-blend-mode: hard-light;
      }

      .cls-15 {
        opacity: .75;
      }

      .cls-5 {
        stroke-dasharray: 0 0 21.8 14.87;
      }

      .cls-6 {
        stroke-dasharray: 0 0 21.83 14.89;
      }

      .cls-7 {
        stroke-dasharray: 0 0 22.13 15.09;
      }

      .cls-8 {
        stroke-dasharray: 0 3.39;
      }

      .cls-9 {
        stroke-dasharray: 0 0 15 15;
      }

      .cls-10 {
        stroke-dasharray: 0 0 22.08 15.05;
      }

      .cls-11 {
        stroke-dasharray: 0 0 22 15;
      }

      .cls-12 {
        stroke-dasharray: 0 0 21.88 14.92;
      }
    </style>
  </defs>
  <g class="cls-13">
    <g id="Capa_2" data-name="Capa 2">
      <g id="Logos">
        <g class="cls-15">
          <g class="cls-14">
            <g>
              <line class="cls-3" x1="964.26" y1="46.82" x2="969.58" y2="56.45"/>
              <line class="cls-4" x1="976.88" y1="69.63" x2="1585.29" y2="1169"/>
              <line class="cls-3" x1="1588.94" y1="1175.59" x2="1594.27" y2="1185.21"/>
            </g>
          </g>
          <g class="cls-14">
            <g>
              <line class="cls-3" x1="1070.07" y1="46.82" x2="1075.4" y2="56.45"/>
              <line class="cls-5" x1="1082.6" y1="69.45" x2="1700.49" y2="1185.94"/>
              <line class="cls-3" x1="1704.09" y1="1192.44" x2="1709.41" y2="1202.07"/>
            </g>
          </g>
          <g class="cls-14">
            <g>
              <line class="cls-3" x1="783.67" y1="1185.21" x2="789" y2="1175.59"/>
              <line class="cls-1" x1="796.19" y1="1162.6" x2="1395.44" y2="79.79"/>
              <line class="cls-3" x1="1399.03" y1="73.3" x2="1404.36" y2="63.67"/>
            </g>
          </g>
          <g class="cls-14">
            <g>
              <line class="cls-3" x1="857.45" y1="1243.1" x2="862.78" y2="1233.47"/>
              <line class="cls-7" x1="870.09" y1="1220.27" x2="1533.23" y2="22.02"/>
              <line class="cls-3" x1="1536.88" y1="15.42" x2="1542.21" y2="5.79"/>
            </g>
          </g>
          <g class="cls-14">
            <g>
              <line class="cls-3" x1="938" y1="1214.86" x2="943.15" y2="1205.14"/>
              <line class="cls-10" x1="950.2" y1="1191.84" x2="1555.46" y2="50.39"/>
              <line class="cls-3" x1="1558.99" y1="43.75" x2="1564.14" y2="34.03"/>
            </g>
          </g>
          <g class="cls-14">
            <g>
              <line class="cls-3" x1="918.87" y1="34.03" x2="924.02" y2="43.75"/>
              <line class="cls-6" x1="931" y1="56.9" x2="1512.41" y2="1153.39"/>
              <line class="cls-3" x1="1515.9" y1="1159.97" x2="1521.05" y2="1169.68"/>
            </g>
          </g>
          <g class="cls-14">
            <g>
              <g>
                <line class="cls-3" x1="1178.78" y1="771.99" x2="1183.93" y2="781.71"/>
                <line class="cls-2" x1="1190.75" y1="794.57" x2="1422.73" y2="1232.07"/>
                <line class="cls-3" x1="1426.14" y1="1238.49" x2="1431.29" y2="1248.21"/>
              </g>
              <line class="cls-8" x1="1177.19" y1="769" x2="1178.78" y2="771.99"/>
              <g>
                <line class="cls-3" x1="769.79" y1=".68" x2="774.94" y2="10.39"/>
                <line class="cls-12" x1="781.93" y1="23.57" x2="1123.17" y2="667.12"/>
                <line class="cls-3" x1="1126.66" y1="673.71" x2="1131.82" y2="683.43"/>
              </g>
            </g>
          </g>
          <line class="cls-11" x1="1731.21" y1="576.74" x2="1261.21" y2="576.74"/>
          <line class="cls-11" x1="1709.5" y1="757.36" x2="1302.5" y2="757.36"/>
          <line class="cls-11" x1="1180.5" y1="757.36" x2="70.5" y2="757.36"/>
          <line class="cls-11" x1="1160.5" y1="491.36" x2=".5" y2="491.36"/>
          <line class="cls-11" x1="1714.53" y1="491.36" x2="554.53" y2="491.36"/>
          <line class="cls-11" x1="1702.5" y1="605.36" x2="1273.5" y2="605.36"/>
        </g>
        <g id="Logo" class="cls-14">
          <path class="cls-9" d="M1153.03,709.42c-31.64-29.49-49.76-81.36-31.8-133.3,9.2-26.61,25.69-47.85,48.96-63.7,21.7-14.78,45.84-22.07,72.05-21.9,30.93.21,58.38,10.41,82.02,30.4,16.54,13.99,28.61,31.25,36.45,51.48-.61.25-1.1.16-1.58.16-12.22,0-24.44,0-36.66.03-1.02,0-1.53-.33-2.04-1.2-3.24-5.47-7-10.54-11.3-15.23-7.26-7.92-15.63-14.37-25.14-19.36-10.04-5.27-20.69-8.51-31.94-9.82-4.32-.5-8.66-.72-13-.57-12.57.43-24.59,3.2-36.01,8.53-8.32,3.89-15.88,8.89-22.69,15.05-7.78,7.03-14.19,15.13-19.21,24.34-5.07,9.28-8.37,19.17-10.03,29.59-.96,6.07-1.22,12.21-.94,18.36.33,7.23,1.5,14.31,3.52,21.26,2.34,8.05,5.73,15.63,10.17,22.74,2.07,3.31,4.31,6.5,6.82,9.5.51.61.44,1.01.08,1.65-5.27,9.45-10.5,18.92-15.74,28.39-.66,1.19-1.31,2.38-1.98,3.59Z"/>
          <path class="cls-9" d="M1241.74,560.05c35.73,64.56,71.42,129.05,107.16,193.62-.7.29-1.19.19-1.68.19-13,0-26-.02-39,.04-1.24,0-1.83-.47-2.34-1.45-3.47-6.6-6.97-13.19-10.47-19.78-3.89-7.32-7.8-14.62-11.69-21.94-3.11-5.85-6.19-11.73-9.3-17.58-3.46-6.5-6.95-12.98-10.41-19.48-2.7-5.08-5.37-10.18-8.07-15.26-3.07-5.77-6.16-11.52-9.23-17.29-1.42-2.67-2.81-5.35-4.23-8.02-.22-.42-.33-.92-.76-1.2-.4-.03-.49.31-.61.55-3.11,5.86-6.19,11.73-9.3,17.58-3.82,7.19-7.68,14.36-11.5,21.54-2.73,5.12-5.41,10.26-8.13,15.39-3.04,5.72-6.12,11.43-9.16,17.16-2.72,5.12-5.41,10.27-8.13,15.39-3.04,5.72-6.12,11.43-9.17,17.16-2.7,5.08-5.39,10.17-8.06,15.26-1.01,1.93-.99,1.94-3.19,1.94-12.76,0-25.51,0-38.27,0-.53,0-1.06,0-1.56,0-.24-.54.08-.84.26-1.16,5.99-10.83,11.98-21.66,17.98-32.49,6.19-11.17,12.4-22.32,18.58-33.5,5.99-10.83,11.97-21.67,17.96-32.51,3.8-6.87,7.61-13.73,11.41-20.59,4.81-8.7,9.62-17.4,14.43-26.1,4.84-8.74,9.68-17.48,14.52-26.22,3.73-6.74,7.46-13.47,11.19-20.21"/>
          <path class="cls-9" d="M1328.42,646.86c-.74,0-1.27,0-1.8,0-9.87,0-19.74-.01-29.61.02-.92,0-1.44-.2-1.92-1.09-6.4-11.66-12.87-23.28-19.31-34.92-.21-.37-.51-.73-.45-1.22.44-.31.94-.16,1.41-.16,30.15,0,60.29,0,90.44,0,.29,0,.59.02.88,0,.65-.04.82.28.83.88.07,2.68.33,5.36.25,8.03-.17,6.46-.58,12.91-1.6,19.31-1.6,10.09-4.34,19.84-8.29,29.26-5.18,12.37-12.14,23.64-20.9,33.8-2.23,2.59-4.54,5.1-6.95,7.52-.31.31-.56.69-1.06.87-.71-.66-1.04-1.59-1.5-2.42-4.24-7.62-8.45-15.26-12.67-22.9-1.22-2.22-2.4-4.46-3.69-6.64-.41-.69-.31-1.08.16-1.65,3.43-4.14,6.41-8.59,9.03-13.28,2.48-4.43,4.53-9.06,6.24-13.84.16-.45.3-.92.51-1.57Z"/>
          <path class="cls-9" d="M1191.82,735.13c1.01-1.92,2.02-3.86,3.04-5.79,2.24-4.22,4.5-8.43,6.75-12.64,2.2-4.13,4.38-8.27,6.58-12.4.46-.86.47-.85,1.63-.43,4.81,1.76,9.73,3.16,14.77,4.1,3.98.74,7.99,1.22,12.03,1.45,11.07.63,21.88-.75,32.45-4.07,1.53-.48,3.04-1.04,4.56-1.57.95-.33,1-.32,1.47.57,3.45,6.5,6.89,13.01,10.35,19.51,1.83,3.44,3.67,6.88,5.52,10.31.61,1.14.63,1.14-.58,1.64-9.96,4.07-20.24,6.95-30.92,8.38-4.54.61-9.09,1.03-13.68,1.17-2.15.07-4.29.17-6.44.11-13.08-.35-25.88-2.41-38.3-6.62-2.86-.97-5.69-1.99-8.47-3.18-.23-.1-.46-.16-.75-.53Z"/>
        </g>
      </g>
    </g>
  </g>
</svg>