<?xml version="1.0" encoding="UTF-8"?>
<svg id="Capa_2" data-name="Capa 2" xmlns="https://www.w3.org/2000/svg" viewBox="0 0 1006.35 1037.48">
  <defs>
    <style>
      .cls-1 {
        fill: #bd1622;
        stroke-width: 0px;
      }
    </style>
  </defs>
  <g id="Recursos">
    <path class="cls-1" d="m153.52,863.8C28.64,747.43-42.84,542.73,28.01,337.77c36.3-105.02,101.37-188.84,193.2-251.36C306.85,28.1,402.11-.7,505.52.01c122.07.84,230.38,41.07,323.66,119.97,65.28,55.22,112.91,123.31,143.84,203.17-2.41,1-4.35.63-6.24.63-48.22.02-96.44-.03-144.66.11-4.02.01-6.02-1.31-8.05-4.74-12.77-21.57-27.63-41.6-44.6-60.1-28.65-31.25-61.69-56.71-99.21-76.41-39.6-20.8-81.64-33.59-126.04-38.74-17.04-1.98-34.16-2.85-51.29-2.27-49.6,1.69-97.04,12.62-142.11,33.67-32.84,15.34-62.68,35.08-89.55,59.38-30.68,27.75-55.98,59.71-75.81,96.04-20,36.63-33.04,75.65-39.56,116.77-3.8,23.97-4.82,48.17-3.69,72.46,1.32,28.53,5.91,56.49,13.88,83.88,9.24,31.75,22.61,61.68,40.14,89.75,8.16,13.08,17,25.67,26.89,37.48,2.02,2.41,1.75,3.98.33,6.53-20.78,37.3-41.43,74.68-62.11,112.04-2.59,4.69-5.18,9.38-7.82,14.17Z"/>
    <path class="cls-1" d="m926.45,1036.56c-2.77,1.13-4.71.75-6.61.75-51.3.02-102.6-.07-153.9.17-4.9.02-7.21-1.86-9.25-5.72-13.71-26.05-27.5-52.05-41.32-78.04-15.35-28.87-30.79-57.7-46.14-86.58-12.28-23.1-24.42-46.28-36.7-69.38-13.64-25.64-27.42-51.22-41.06-76.86-10.66-20.04-21.17-40.16-31.83-60.2-12.1-22.76-24.31-45.46-36.43-68.21-5.61-10.53-11.09-21.12-16.68-31.66-.88-1.66-1.31-3.64-3.02-4.75-1.58-.1-1.92,1.22-2.41,2.15-12.26,23.11-24.42,46.28-36.71,69.38-15.08,28.36-30.3,56.65-45.39,85.01-10.75,20.21-21.35,40.51-32.1,60.72-12.01,22.59-24.15,45.11-36.16,67.7-10.75,20.22-21.35,40.51-32.1,60.72-12.01,22.59-24.16,45.11-36.17,67.7-10.66,20.04-21.25,40.12-31.8,60.23-3.99,7.6-3.9,7.65-12.59,7.65-50.34,0-100.67,0-151.01,0-2.09,0-4.19,0-6.17,0-.96-2.14.33-3.33,1.02-4.58,23.62-42.75,47.27-85.49,70.94-128.21,24.42-44.07,48.91-88.1,73.31-132.18,23.66-42.74,47.22-85.53,70.85-128.28,14.98-27.1,30.03-54.17,45.02-81.26,18.99-34.33,37.94-68.68,56.94-103.01,19.09-34.49,38.21-68.97,57.31-103.46,14.72-26.59,29.44-53.17,44.14-79.77.73-1.32,1.27-2.73,3.16-4.09,141,254.77,281.83,509.24,422.85,764.06Z"/>
    <path class="cls-1" d="m845.65,617.75c-2.9,0-5.01,0-7.12,0-38.95,0-77.9-.04-116.85.07-3.63.01-5.67-.81-7.6-4.31-25.27-46-50.79-91.87-76.2-137.8-.81-1.46-2.01-2.87-1.79-4.82,1.73-1.24,3.71-.63,5.55-.63,118.97-.03,237.93-.03,356.9-.03,1.16,0,2.32.07,3.47,0,2.55-.17,3.22,1.09,3.29,3.48.28,10.57,1.29,21.14,1,31.69-.69,25.51-2.3,50.93-6.32,76.21-6.33,39.82-17.13,78.31-32.71,115.47-20.45,48.81-47.89,93.3-82.47,133.38-8.81,10.21-17.9,20.13-27.43,29.66-1.21,1.21-2.19,2.71-4.17,3.45-2.81-2.6-4.09-6.29-5.91-9.56-16.74-30.08-33.34-60.23-49.98-90.37-4.83-8.75-9.48-17.6-14.57-26.2-1.6-2.72-1.23-4.25.63-6.5,13.55-16.32,25.28-33.91,35.64-52.4,9.79-17.48,17.87-35.75,24.64-54.61.64-1.79,1.18-3.63,2-6.18Z"/>
    <path class="cls-1" d="m306.6,965.24c3.97-7.56,7.95-15.23,12.01-22.86,8.86-16.64,17.77-33.25,26.63-49.9,8.67-16.3,17.29-32.64,25.95-48.95,1.8-3.38,1.85-3.36,6.42-1.69,19,6.94,38.39,12.46,58.28,16.17,15.7,2.93,31.51,4.8,47.48,5.71,43.69,2.49,86.35-2.94,128.06-16.06,6.04-1.9,11.99-4.12,17.98-6.18,3.76-1.3,3.93-1.26,5.8,2.26,13.62,25.66,27.21,51.33,40.84,76.99,7.22,13.59,14.5,27.14,21.78,40.7,2.42,4.5,2.47,4.52-2.31,6.47-39.31,16.07-79.88,27.43-122.03,33.08-17.93,2.4-35.89,4.06-53.98,4.62-8.47.26-16.94.67-25.4.44-51.63-1.39-102.12-9.5-151.13-26.12-11.28-3.82-22.47-7.86-33.42-12.55-.89-.38-1.81-.64-2.94-2.11Z"/>
  </g>
</svg>