<?xml version="1.0" encoding="UTF-8"?>
<svg id="Capa_2" data-name="Capa 2" xmlns="http://www.w3.org/2000/svg" viewBox="0 0 208.88 215.34">
  <defs>
    <style>
      .cls-1 {
        fill: #bd1622;
        stroke-width: 0px;
      }
    </style>
  </defs>
  <g id="Recursos">
    <g>
      <path class="cls-1" d="m31.86,179.29C5.94,155.13-8.89,112.65,5.81,70.11c7.53-21.8,21.04-39.19,40.1-52.17C63.69,5.83,83.46-.14,104.92,0c25.34.17,47.82,8.53,67.18,24.9,13.55,11.46,23.44,25.59,29.85,42.17-.5.21-.9.13-1.29.13-10.01,0-20.02,0-30.03.02-.83,0-1.25-.27-1.67-.98-2.65-4.48-5.74-8.63-9.26-12.47-5.95-6.49-12.8-11.77-20.59-15.86-8.22-4.32-16.95-6.97-26.16-8.04-3.54-.41-7.09-.59-10.65-.47-10.3.35-20.14,2.62-29.5,6.99-6.82,3.18-13.01,7.28-18.59,12.33-6.37,5.76-11.62,12.39-15.74,19.93-4.15,7.6-6.86,15.7-8.21,24.24-.79,4.97-1,10-.77,15.04.27,5.92,1.23,11.72,2.88,17.41,1.92,6.59,4.69,12.8,8.33,18.63,1.69,2.71,3.53,5.33,5.58,7.78.42.5.36.83.07,1.36-4.31,7.74-8.6,15.5-12.89,23.25-.54.97-1.07,1.95-1.62,2.94Z"/>
      <path class="cls-1" d="m192.29,215.15c-.57.23-.98.15-1.37.15-10.65,0-21.3-.02-31.94.03-1.02,0-1.5-.39-1.92-1.19-2.85-5.41-5.71-10.8-8.58-16.2-3.19-5.99-6.39-11.98-9.58-17.97-2.55-4.8-5.07-9.61-7.62-14.4-2.83-5.32-5.69-10.63-8.52-15.95-2.21-4.16-4.39-8.34-6.61-12.5-2.51-4.72-5.05-9.44-7.56-14.16-1.16-2.18-2.3-4.38-3.46-6.57-.18-.34-.27-.76-.63-.99-.33-.02-.4.25-.5.45-2.54,4.8-5.07,9.61-7.62,14.4-3.13,5.89-6.29,11.76-9.42,17.64-2.23,4.2-4.43,8.41-6.66,12.6-2.49,4.69-5.01,9.36-7.51,14.05-2.23,4.2-4.43,8.41-6.66,12.6-2.49,4.69-5.01,9.36-7.51,14.05-2.21,4.16-4.41,8.33-6.6,12.5-.83,1.58-.81,1.59-2.61,1.59-10.45,0-20.9,0-31.34,0-.43,0-.87,0-1.28,0-.2-.44.07-.69.21-.95,4.9-8.87,9.81-17.74,14.73-26.61,5.07-9.15,10.15-18.29,15.22-27.43,4.91-8.87,9.8-17.75,14.71-26.63,3.11-5.63,6.23-11.24,9.34-16.87,3.94-7.13,7.88-14.25,11.82-21.38,3.96-7.16,7.93-14.32,11.9-21.47,3.06-5.52,6.11-11.04,9.16-16.56.15-.27.26-.57.66-.85,29.27,52.88,58.5,105.7,87.77,158.59Z"/>
      <path class="cls-1" d="m175.52,128.22c-.6,0-1.04,0-1.48,0-8.08,0-16.17,0-24.25.01-.75,0-1.18-.17-1.58-.89-5.25-9.55-10.54-19.07-15.82-28.6-.17-.3-.42-.6-.37-1,.36-.26.77-.13,1.15-.13,24.69,0,49.38,0,74.08,0,.24,0,.48.02.72,0,.53-.04.67.23.68.72.06,2.19.27,4.39.21,6.58-.14,5.29-.48,10.57-1.31,15.82-1.31,8.27-3.56,16.25-6.79,23.97-4.25,10.13-9.94,19.36-17.12,27.68-1.83,2.12-3.72,4.18-5.69,6.16-.25.25-.45.56-.87.72-.58-.54-.85-1.31-1.23-1.98-3.47-6.24-6.92-12.5-10.37-18.76-1-1.82-1.97-3.65-3.02-5.44-.33-.56-.26-.88.13-1.35,2.81-3.39,5.25-7.04,7.4-10.88,2.03-3.63,3.71-7.42,5.11-11.33.13-.37.24-.75.41-1.28Z"/>
      <path class="cls-1" d="m63.64,200.34c.82-1.57,1.65-3.16,2.49-4.75,1.84-3.45,3.69-6.9,5.53-10.36,1.8-3.38,3.59-6.77,5.39-10.16.37-.7.38-.7,1.33-.35,3.94,1.44,7.97,2.59,12.1,3.36,3.26.61,6.54,1,9.85,1.18,9.07.52,17.92-.61,26.58-3.33,1.25-.39,2.49-.85,3.73-1.28.78-.27.82-.26,1.2.47,2.83,5.33,5.65,10.65,8.48,15.98,1.5,2.82,3.01,5.63,4.52,8.45.5.93.51.94-.48,1.34-8.16,3.34-16.58,5.69-25.33,6.87-3.72.5-7.45.84-11.2.96-1.76.05-3.52.14-5.27.09-10.72-.29-21.2-1.97-31.37-5.42-2.34-.79-4.66-1.63-6.94-2.61-.18-.08-.38-.13-.61-.44Z"/>
    </g>
  </g>
</svg>